# xmcd
#
# Track frame offsets:
#  150
#  15046
#  31364
#  47211
#  60616
#
# Disc length: 932 seconds
#
# Revision: 0
# Processed by: cddbd v1.5.2PL0 Copyright (c) Steve Scherf et al.
# Submitted via: AltoMP3_Maker 3.0
#
DISCID=3203a205
DTITLE=Jasmine Rae - Santa's Little Helper
DYEAR=1900
DGENRE=
TTITLE0=Santa Man
TTITLE1=The Christmas Song
TTITLE2=Christmas Alphabet
TTITLE3=Really Christmas
TTITLE4=Rudolph The Red Nose Reindeer
EXTD=
EXTT0=
EXTT1=
EXTT2=
EXTT3=
EXTT4=
PLAYORDER=
